<?xml version="1.0" encoding="utf-8" standalone="no"?>
<!DOCTYPE svg PUBLIC "-//W3C//DTD SVG 1.1//EN"
  "http://www.w3.org/Graphics/SVG/1.1/DTD/svg11.dtd">
<svg xmlns:xlink="http://www.w3.org/1999/xlink" width="432pt" height="216pt" viewBox="0 0 432 216" xmlns="http://www.w3.org/2000/svg" version="1.1">
 <metadata>
  <rdf:RDF xmlns:dc="http://purl.org/dc/elements/1.1/" xmlns:cc="http://creativecommons.org/ns#" xmlns:rdf="http://www.w3.org/1999/02/22-rdf-syntax-ns#">
   <cc:Work>
    <dc:type rdf:resource="http://purl.org/dc/dcmitype/StillImage"/>
    <dc:date>2025-03-11T00:55:35.937837</dc:date>
    <dc:format>image/svg+xml</dc:format>
    <dc:creator>
     <cc:Agent>
      <dc:title>Matplotlib v3.10.0, https://matplotlib.org/</dc:title>
     </cc:Agent>
    </dc:creator>
   </cc:Work>
  </rdf:RDF>
 </metadata>
 <defs>
  <style type="text/css">*{stroke-linejoin: round; stroke-linecap: butt}</style>
 </defs>
 <g id="figure_1">
  <g id="patch_1">
   <path d="M 0 216 
L 432 216 
L 432 0 
L 0 0 
L 0 216 
z
" style="fill: none"/>
  </g>
  <g id="axes_1">
   <g id="PathCollection_1">
    <path d="M 216.019638 51.473907 
C 221.94976 51.473907 227.637797 49.117845 231.831027 44.924616 
C 236.024256 40.731386 238.380318 35.043349 238.380318 29.113227 
C 238.380318 23.183106 236.024256 17.495068 231.831027 13.301839 
C 227.637797 9.10861 221.94976 6.752548 216.019638 6.752548 
C 210.089517 6.752548 204.401479 9.10861 200.20825 13.301839 
C 196.015021 17.495068 193.658959 23.183106 193.658959 29.113227 
C 193.658959 35.043349 196.015021 40.731386 200.20825 44.924616 
C 204.401479 49.117845 210.089517 51.473907 216.019638 51.473907 
z
" clip-path="url(#p8cdebe87ab)" style="fill: #f9ce61"/>
   </g>
   <g id="line2d_1">
    <path d="M 19.636364 107.88299 
L 20.304067 107.775903 
L 21.011047 107.431649 
L 21.79658 106.780618 
L 22.660666 105.760471 
L 23.681859 104.193498 
L 24.977989 101.761795 
L 27.177481 97.057617 
L 29.102037 93.145796 
L 30.280337 91.223719 
L 31.1837 90.134253 
L 31.929957 89.544361 
L 32.59766 89.286811 
L 33.18681 89.290451 
L 33.775959 89.52422 
L 34.404386 90.038934 
L 35.072089 90.895901 
L 35.818345 92.23914 
L 36.643155 94.198242 
L 37.585795 97.03426 
L 38.685541 101.10214 
L 39.981671 106.825571 
L 41.592014 115.024563 
L 47.326405 145.270039 
L 48.465428 149.632583 
L 49.408068 152.415739 
L 50.193601 154.074788 
L 50.822028 154.929175 
L 51.332624 155.295503 
L 51.764667 155.367132 
L 52.196711 155.214538 
L 52.66803 154.787358 
L 53.217904 153.940069 
L 53.84633 152.507621 
L 54.55331 150.304585 
L 55.37812 146.954018 
L 56.320759 142.131807 
L 57.420506 135.257499 
L 58.716635 125.63643 
L 60.326978 111.888351 
L 63.076344 86.097445 
L 65.47222 64.488692 
L 66.925456 53.273986 
L 68.103756 45.823755 
L 69.046396 41.160711 
L 69.831929 38.267234 
L 70.499632 36.571455 
L 71.049505 35.727133 
L 71.481548 35.424014 
L 71.835038 35.41604 
L 72.188528 35.626472 
L 72.620571 36.182386 
L 73.131168 37.264516 
L 73.720317 39.084299 
L 74.427297 42.066899 
L 75.252107 46.620172 
L 76.194747 53.172964 
L 77.294493 62.490583 
L 78.590623 75.475901 
L 80.240242 94.404645 
L 83.421651 134.219589 
L 85.542591 159.235379 
L 86.995827 173.902462 
L 88.174127 183.651145 
L 89.156043 190.014507 
L 89.980853 193.982896 
L 90.648556 196.213217 
L 91.198429 197.364098 
L 91.630472 197.824035 
L 91.983962 197.905934 
L 92.298175 197.754883 
L 92.651665 197.332423 
L 93.083708 196.453092 
L 93.633582 194.759336 
L 94.262008 192.045533 
L 95.008264 187.771654 
L 95.872351 181.457994 
L 96.893544 172.241267 
L 98.11112 159.053024 
L 99.603633 140.2536 
L 101.724572 110.393527 
L 105.338025 59.461722 
L 106.869814 41.115913 
L 108.087391 29.010718 
L 109.108584 20.913075 
L 109.97267 15.697324 
L 110.67965 12.621258 
L 111.2688 10.909037 
L 111.740119 10.108325 
L 112.132886 9.831657 
L 112.447099 9.867119 
L 112.761312 10.131006 
L 113.154079 10.781366 
L 113.625399 12.028944 
L 114.214549 14.29576 
L 114.921529 18.028664 
L 115.746338 23.723438 
L 116.688978 31.88394 
L 117.828001 43.854217 
L 119.202684 60.865156 
L 121.00941 86.23508 
L 126.115375 159.563351 
L 127.529335 175.883576 
L 128.668358 186.661493 
L 129.650274 193.982299 
L 130.475084 198.59585 
L 131.182064 201.377289 
L 131.731937 202.771849 
L 132.203257 203.424997 
L 132.556747 203.585084 
L 132.87096 203.490229 
L 133.22445 203.117701 
L 133.656493 202.282938 
L 134.167089 200.765188 
L 134.795516 198.1245 
L 135.541772 193.920815 
L 136.405859 187.686459 
L 137.427052 178.591935 
L 138.644628 165.6352 
L 140.176418 146.798878 
L 142.61157 113.651541 
L 145.478766 75.336039 
L 147.049832 57.209201 
L 148.306685 45.091979 
L 149.367155 36.859084 
L 150.270518 31.439374 
L 151.056051 27.989451 
L 151.684478 26.101328 
L 152.234351 25.093369 
L 152.666394 24.724271 
L 153.019884 24.698152 
L 153.373374 24.91862 
L 153.76614 25.449864 
L 154.23746 26.479083 
L 154.82661 28.352265 
L 155.53359 31.428478 
L 156.358399 36.094203 
L 157.340316 43.02915 
L 158.518615 53.06715 
L 159.971852 67.471512 
L 162.171344 91.786953 
L 165.470583 128.034355 
L 167.04165 142.824522 
L 168.298503 152.712108 
L 169.358972 159.450017 
L 170.301612 164.085104 
L 171.087145 166.925196 
L 171.754848 168.5922 
L 172.304721 169.446986 
L 172.776041 169.809106 
L 173.168808 169.852348 
L 173.561574 169.663937 
L 173.993618 169.194053 
L 174.504214 168.293004 
L 175.132641 166.688803 
L 175.878897 164.112796 
L 176.742983 160.293004 
L 177.803453 154.525082 
L 179.099583 146.160683 
L 180.906309 132.876299 
L 185.462401 98.73064 
L 186.915637 89.807518 
L 188.133213 83.641912 
L 189.154406 79.522943 
L 190.057769 76.732177 
L 190.843303 74.972667 
L 191.511006 73.965554 
L 192.100155 73.444396 
L 192.610752 73.264869 
L 193.082072 73.316803 
L 193.592668 73.600331 
L 194.181818 74.207435 
L 194.849521 75.234982 
L 195.674331 76.956852 
L 196.656247 79.571477 
L 197.873824 83.488667 
L 199.641273 90.013275 
L 203.176172 103.179579 
L 204.590132 107.518983 
L 205.729155 110.352752 
L 206.711071 112.251091 
L 207.575158 113.479193 
L 208.360691 114.230846 
L 209.06767 114.614525 
L 209.735374 114.731274 
L 210.403077 114.622435 
L 211.110056 114.280085 
L 211.934866 113.617812 
L 212.916783 112.521699 
L 214.212912 110.707564 
L 218.258408 104.783721 
L 219.240324 103.836673 
L 220.065134 103.324282 
L 220.81139 103.11877 
L 221.479093 103.162513 
L 222.146796 103.434103 
L 222.853776 103.978799 
L 223.600033 104.844822 
L 224.464119 106.217527 
L 225.446036 108.23904 
L 226.585059 111.142219 
L 227.959741 115.301152 
L 230.002127 122.285794 
L 232.712217 131.425956 
L 234.008346 135.035495 
L 235.029539 137.265738 
L 235.854349 138.574759 
L 236.522052 139.266843 
L 237.111202 139.58006 
L 237.621799 139.612546 
L 238.132395 139.413634 
L 238.682268 138.932335 
L 239.271418 138.101898 
L 239.939121 136.761044 
L 240.724654 134.637835 
L 241.588741 131.629924 
L 242.609934 127.202727 
L 243.788233 121.013638 
L 245.202193 112.285869 
L 247.048196 99.373608 
L 251.486458 67.764931 
L 252.821864 60.065963 
L 253.92161 54.954509 
L 254.824973 51.75583 
L 255.57123 49.87533 
L 256.16038 48.913216 
L 256.670976 48.469499 
L 257.103019 48.385328 
L 257.495786 48.545057 
L 257.927829 48.984115 
L 258.438426 49.861898 
L 259.027575 51.359672 
L 259.734555 53.839743 
L 260.520088 57.45371 
L 261.423451 62.685625 
L 262.483921 70.198884 
L 263.740774 80.802929 
L 265.31184 96.128152 
L 267.707716 122.05552 
L 270.614189 153.00743 
L 272.145978 166.976308 
L 273.324278 175.853048 
L 274.306194 181.720138 
L 275.131004 185.435406 
L 275.837984 187.669404 
L 276.387857 188.771481 
L 276.859177 189.260755 
L 277.212667 189.347295 
L 277.566157 189.191125 
L 277.958923 188.731385 
L 278.430243 187.781192 
L 278.980116 186.124764 
L 279.647819 183.328819 
L 280.433352 178.963843 
L 281.336715 172.568708 
L 282.397185 163.321299 
L 283.654038 150.222165 
L 285.185828 131.764216 
L 287.50315 100.784682 
L 290.606006 59.787137 
L 292.137796 42.431623 
L 293.355372 30.968705 
L 294.376565 23.306019 
L 295.240651 18.384792 
L 295.947631 15.501184 
L 296.536781 13.917509 
L 297.008101 13.199844 
L 297.361591 12.986116 
L 297.675804 13.031097 
L 298.029294 13.346665 
L 298.42206 14.026135 
L 298.932657 15.424453 
L 299.521807 17.75306 
L 300.228787 21.536369 
L 301.053596 27.261667 
L 301.996236 35.426718 
L 303.135259 47.370739 
L 304.509942 64.322068 
L 306.316668 89.598991 
L 311.422633 162.748125 
L 312.836593 179.024555 
L 313.975616 189.748285 
L 314.957532 196.998464 
L 315.782342 201.528902 
L 316.450045 204.09783 
L 316.999918 205.453877 
L 317.431961 206.031088 
L 317.785451 206.181818 
L 318.099665 206.072557 
L 318.453154 205.676499 
L 318.885198 204.801757 
L 319.395794 203.219763 
L 320.024221 200.47296 
L 320.770477 196.101886 
L 321.634563 189.6143 
L 322.655756 180.134956 
L 323.873333 166.597027 
L 325.405122 146.8487 
L 327.722445 113.639223 
L 330.825301 69.655297 
L 332.396367 50.490567 
L 333.65322 37.70046 
L 334.71369 29.040575 
L 335.617053 23.376233 
L 336.363309 19.959833 
L 336.991736 17.998829 
L 337.502332 17.031961 
L 337.895099 16.672486 
L 338.248588 16.634525 
L 338.562802 16.827032 
L 338.955568 17.365017 
L 339.426888 18.441691 
L 339.976761 20.280935 
L 340.644464 23.3331 
L 341.429998 28.01987 
L 342.372637 35.094573 
L 343.472384 45.125783 
L 344.847067 59.877202 
L 346.693069 82.341875 
L 351.445545 141.30503 
L 352.898781 156.067883 
L 354.07708 165.96614 
L 355.098273 172.800921 
L 355.96236 177.211191 
L 356.708616 179.961102 
L 357.337043 181.499509 
L 357.847639 182.222919 
L 358.240406 182.458931 
L 358.593896 182.434756 
L 358.947386 182.188656 
L 359.379429 181.590685 
L 359.890025 180.471146 
L 360.518452 178.498545 
L 361.264708 175.344272 
L 362.128795 170.669213 
L 363.189264 163.59346 
L 364.446117 153.615375 
L 366.135014 138.256277 
L 371.751575 85.609757 
L 373.126258 75.54328 
L 374.265281 68.736192 
L 375.247197 64.117145 
L 376.111284 61.065608 
L 376.85754 59.212736 
L 377.485967 58.217391 
L 377.996563 57.785877 
L 378.428606 57.680904 
L 378.86065 57.809761 
L 379.33197 58.210455 
L 379.881843 59.009594 
L 380.510269 60.34011 
L 381.256526 62.460248 
L 382.159889 65.73664 
L 383.259635 70.624062 
L 384.673595 78.023386 
L 386.873087 90.920998 
L 389.77956 107.720264 
L 391.311349 115.29274 
L 392.568202 120.446967 
L 393.628672 123.927591 
L 394.571312 126.30522 
L 395.396121 127.818877 
L 396.103101 128.696958 
L 396.731528 129.15976 
L 397.320678 129.331491 
L 397.909827 129.261149 
L 398.498977 128.96273 
L 399.16668 128.36955 
L 399.952213 127.360495 
L 400.894853 125.772252 
L 402.112429 123.256735 
L 404.115539 118.517142 
L 406.393585 113.283602 
L 407.689714 110.841185 
L 408.750184 109.295926 
L 409.653547 108.359363 
L 410.43908 107.852869 
L 411.14606 107.650455 
L 411.813763 107.680716 
L 412.363636 107.864487 
L 412.363636 107.864487 
" clip-path="url(#p8cdebe87ab)" style="fill: none; stroke: #f9ce61; stroke-width: 6; stroke-linecap: square"/>
   </g>
  </g>
 </g>
 <defs>
  <clipPath id="p8cdebe87ab">
   <rect x="0" y="0" width="432" height="216"/>
  </clipPath>
 </defs>
</svg>
