<?xml version="1.0" encoding="utf-8" standalone="no"?>
<!DOCTYPE svg PUBLIC "-//W3C//DTD SVG 1.1//EN"
  "http://www.w3.org/Graphics/SVG/1.1/DTD/svg11.dtd">
<svg xmlns:xlink="http://www.w3.org/1999/xlink" width="432pt" height="216pt" viewBox="0 0 432 216" xmlns="http://www.w3.org/2000/svg" version="1.1">
 <metadata>
  <rdf:RDF xmlns:dc="http://purl.org/dc/elements/1.1/" xmlns:cc="http://creativecommons.org/ns#" xmlns:rdf="http://www.w3.org/1999/02/22-rdf-syntax-ns#">
   <cc:Work>
    <dc:type rdf:resource="http://purl.org/dc/dcmitype/StillImage"/>
    <dc:date>2025-02-24T20:33:50.001995</dc:date>
    <dc:format>image/svg+xml</dc:format>
    <dc:creator>
     <cc:Agent>
      <dc:title>Matplotlib v3.10.0, https://matplotlib.org/</dc:title>
     </cc:Agent>
    </dc:creator>
   </cc:Work>
  </rdf:RDF>
 </metadata>
 <defs>
  <style type="text/css">*{stroke-linejoin: round; stroke-linecap: butt}</style>
 </defs>
 <g id="figure_1">
  <g id="patch_1">
   <path d="M 0 216 
L 432 216 
L 432 0 
L 0 0 
L 0 216 
z
" style="fill: none"/>
  </g>
  <g id="axes_1">
   <g id="PathCollection_1">
    <path d="M 216.019638 78.174347 
C 221.155274 78.174347 226.081259 76.133938 229.712702 72.502495 
C 233.344145 68.871052 235.384555 63.945067 235.384555 58.809431 
C 235.384555 53.673795 233.344145 48.74781 229.712702 45.116367 
C 226.081259 41.484924 221.155274 39.444514 216.019638 39.444514 
C 210.884002 39.444514 205.958017 41.484924 202.326574 45.116367 
C 198.695131 48.74781 196.654722 53.673795 196.654722 58.809431 
C 196.654722 63.945067 198.695131 68.871052 202.326574 72.502495 
C 205.958017 76.133938 210.884002 78.174347 216.019638 78.174347 
z
" clip-path="url(#p5a4cd9b0f7)" style="fill: #f9ce61"/>
   </g>
   <g id="line2d_1">
    <path d="M 19.636364 108.067083 
L 20.14696 107.962769 
L 20.696833 107.621324 
L 21.32526 106.957651 
L 22.110793 105.770233 
L 23.171263 103.705565 
L 25.842075 98.303512 
L 26.588332 97.349749 
L 27.177481 96.926834 
L 27.648801 96.835163 
L 28.080844 96.963241 
L 28.552164 97.349451 
L 29.062761 98.070553 
L 29.651911 99.302081 
L 30.35889 101.339643 
L 31.1837 104.443925 
L 32.204893 109.215565 
L 33.697406 117.394764 
L 35.896899 129.36658 
L 36.878815 133.515203 
L 37.625072 135.782489 
L 38.214221 136.911734 
L 38.646265 137.326686 
L 38.999755 137.389368 
L 39.313968 137.227985 
L 39.706734 136.731467 
L 40.178054 135.695905 
L 40.727927 133.878519 
L 41.39563 130.804596 
L 42.181164 126.035793 
L 43.123803 118.86032 
L 44.380656 107.428392 
L 48.033385 72.983786 
L 48.936748 66.972384 
L 49.643728 63.609284 
L 50.193601 61.93135 
L 50.625644 61.235164 
L 50.939858 61.087745 
L 51.214794 61.212656 
L 51.529007 61.649662 
L 51.921774 62.640723 
L 52.393094 64.481886 
L 52.982244 67.767233 
L 53.689223 73.090505 
L 54.55331 81.457751 
L 55.653056 94.539953 
L 57.302676 117.250125 
L 59.462892 146.499155 
L 60.523361 158.020414 
L 61.348171 164.783504 
L 62.015874 168.555056 
L 62.526471 170.302606 
L 62.919237 170.93968 
L 63.194174 171.00969 
L 63.429834 170.819961 
L 63.744047 170.206042 
L 64.136814 168.857986 
L 64.608134 166.395746 
L 65.197283 162.054811 
L 65.904263 155.092399 
L 66.76835 144.252684 
L 67.868096 127.470485 
L 69.674822 95.852495 
L 71.638655 62.63796 
L 72.699124 48.199701 
L 73.523934 39.690222 
L 74.191637 34.889182 
L 74.702234 32.601861 
L 75.095 31.699682 
L 75.369937 31.522456 
L 75.56632 31.62741 
L 75.841257 32.099991 
L 76.194747 33.265837 
L 76.62679 35.537242 
L 77.176663 39.745672 
L 77.844366 46.74834 
L 78.669176 58.009885 
L 79.690369 75.293759 
L 81.143605 104.134038 
L 83.932248 159.939892 
L 84.992717 176.496083 
L 85.817527 186.172037 
L 86.48523 191.580216 
L 86.995827 194.121849 
L 87.388593 195.09552 
L 87.624253 195.262124 
L 87.820637 195.159851 
L 88.056297 194.747113 
L 88.37051 193.705367 
L 88.802553 191.363562 
L 89.313149 187.267183 
L 89.941576 180.33561 
L 90.727109 168.977286 
L 91.709025 151.199522 
L 93.044432 122.505045 
L 96.382947 48.980747 
L 97.40414 32.148331 
L 98.189674 22.529935 
L 98.8181 17.239844 
L 99.328697 14.633792 
L 99.682186 13.750217 
L 99.917846 13.585985 
L 100.11423 13.710063 
L 100.34989 14.172261 
L 100.664103 15.318376 
L 101.096146 17.872252 
L 101.646019 22.71858 
L 102.313722 30.883259 
L 103.099255 43.393598 
L 104.120448 63.56621 
L 105.573685 97.349075 
L 108.401604 163.771114 
L 109.462073 183.246187 
L 110.286883 194.726577 
L 110.954586 201.261662 
L 111.50446 204.63346 
L 111.897226 205.885624 
L 112.172163 206.179242 
L 112.368546 206.093613 
L 112.604206 205.666042 
L 112.918419 204.547197 
L 113.350462 201.997317 
L 113.861059 197.513414 
L 114.489485 189.917033 
L 115.275018 177.48466 
L 116.256935 158.086869 
L 117.631618 125.969771 
L 120.77375 51.109533 
L 121.794943 32.46235 
L 122.619753 21.102115 
L 123.287456 14.711727 
L 123.798053 11.647823 
L 124.190819 10.40345 
L 124.465756 10.115634 
L 124.662139 10.205034 
L 124.897799 10.636223 
L 125.212012 11.757481 
L 125.644055 14.304075 
L 126.154652 18.770408 
L 126.783078 26.318314 
L 127.568611 38.638072 
L 128.550528 57.799774 
L 129.964487 90.349298 
L 132.949513 160.136666 
L 134.009983 179.340579 
L 134.834793 190.64464 
L 135.502496 197.092066 
L 136.052369 200.447012 
L 136.445135 201.725538 
L 136.720072 202.05942 
L 136.916455 202.01448 
L 137.152115 201.649642 
L 137.466328 200.639345 
L 137.859095 198.547152 
L 138.369692 194.489956 
L 138.998118 187.531426 
L 139.783651 176.07159 
L 140.765567 158.148067 
L 142.14025 128.487281 
L 145.203829 61.124416 
L 146.264299 43.117713 
L 147.089109 32.51145 
L 147.756812 26.442999 
L 148.306685 23.259011 
L 148.699452 22.018892 
L 148.974388 21.668738 
L 149.170772 21.679844 
L 149.406432 21.979339 
L 149.720645 22.860153 
L 150.113411 24.722059 
L 150.624008 28.366584 
L 151.252434 34.645039 
L 152.037967 45.001895 
L 153.019884 61.196524 
L 154.394567 87.943968 
L 157.418869 147.694418 
L 158.479339 163.901179 
L 159.304149 173.480995 
L 159.971852 179.003871 
L 160.521725 181.949405 
L 160.953768 183.21906 
L 161.267981 183.560648 
L 161.464365 183.525947 
L 161.700025 183.23401 
L 162.014238 182.42478 
L 162.407004 180.751902 
L 162.917601 177.518325 
L 163.546027 171.997622 
L 164.33156 162.960223 
L 165.352753 148.324238 
L 166.845266 123.227773 
L 169.437526 79.558931 
L 170.537272 64.820491 
L 171.401358 55.948412 
L 172.108338 50.750654 
L 172.697488 47.937463 
L 173.129531 46.775508 
L 173.443744 46.411605 
L 173.679404 46.403175 
L 173.915064 46.619274 
L 174.229277 47.251609 
L 174.622044 48.582075 
L 175.132641 51.172048 
L 175.761067 55.603326 
L 176.5466 62.849966 
L 177.567793 74.542316 
L 179.138859 95.534191 
L 181.495459 126.723243 
L 182.595205 138.42027 
L 183.459291 145.516164 
L 184.166271 149.734805 
L 184.755421 152.087326 
L 185.226741 153.191214 
L 185.580231 153.565458 
L 185.855167 153.590719 
L 186.130104 153.387222 
L 186.483594 152.79722 
L 186.915637 151.592286 
L 187.46551 149.333615 
L 188.17249 145.35024 
L 189.036576 139.094474 
L 190.214876 128.802294 
L 193.985435 94.581788 
L 194.967351 88.166663 
L 195.752884 84.330611 
L 196.420588 82.054888 
L 196.970461 80.877619 
L 197.402504 80.391582 
L 197.755994 80.274993 
L 198.109484 80.403596 
L 198.50225 80.822376 
L 198.97357 81.686097 
L 199.56272 83.271358 
L 200.308976 85.973485 
L 201.290893 90.43154 
L 203.058342 99.725481 
L 204.786515 108.350739 
L 205.846985 112.571688 
L 206.711071 115.152563 
L 207.418051 116.628096 
L 208.007201 117.411494 
L 208.517797 117.770065 
L 208.989117 117.850176 
L 209.460437 117.706689 
L 210.01031 117.285364 
L 210.678013 116.462536 
L 211.581376 114.94867 
L 214.880615 109.013667 
L 215.587595 108.316778 
L 216.176745 108.011727 
L 216.726618 107.971958 
L 217.237215 108.152473 
L 217.826364 108.617381 
L 218.494068 109.456935 
L 219.318877 110.891343 
L 220.4579 113.38397 
L 222.893053 118.83738 
L 223.678586 120.029439 
L 224.307013 120.60474 
L 224.778332 120.772757 
L 225.210376 120.706727 
L 225.642419 120.415931 
L 226.153015 119.768821 
L 226.742165 118.602376 
L 227.409868 116.736193 
L 228.195401 113.830678 
L 229.138041 109.442623 
L 230.394894 102.447795 
L 233.61558 84.023296 
L 234.518943 80.360992 
L 235.186646 78.473774 
L 235.697242 77.581058 
L 236.129286 77.232697 
L 236.443499 77.226053 
L 236.757712 77.433978 
L 237.150479 78.0022 
L 237.621799 79.142563 
L 238.171672 81.105935 
L 238.839375 84.387099 
L 239.624908 89.433414 
L 240.606824 97.318494 
L 241.902954 109.704853 
L 245.280746 142.921983 
L 246.223386 149.680389 
L 246.969642 153.539289 
L 247.558792 155.499381 
L 247.990835 156.274575 
L 248.305049 156.470305 
L 248.579985 156.381099 
L 248.894199 155.977189 
L 249.286965 155.015671 
L 249.758285 153.192286 
L 250.347435 149.901768 
L 251.054415 144.532341 
L 251.918501 136.051496 
L 252.978971 123.256115 
L 254.589313 100.692557 
L 256.906636 68.555583 
L 257.967106 56.86321 
L 258.791916 50.034991 
L 259.420342 46.431628 
L 259.930939 44.625591 
L 260.323705 43.956924 
L 260.598642 43.871854 
L 260.834302 44.053329 
L 261.148515 44.662932 
L 261.541281 46.016287 
L 262.012601 48.500339 
L 262.601751 52.89149 
L 263.308731 59.945848 
L 264.172817 70.940013 
L 265.272564 87.973438 
L 267.07929 120.08566 
L 269.043122 153.848933 
L 270.103592 168.545389 
L 270.928402 177.222972 
L 271.596105 182.134418 
L 272.106702 184.488964 
L 272.499468 185.432129 
L 272.774405 185.632335 
L 272.970788 185.540875 
L 273.206448 185.172045 
L 273.520661 184.240395 
L 273.952704 182.143283 
L 274.463301 178.468529 
L 275.091727 172.237198 
L 275.87726 161.999753 
L 276.859177 145.925521 
L 278.155306 120.688491 
L 281.650929 50.666583 
L 282.632845 36.156647 
L 283.418378 27.594097 
L 284.046805 22.985628 
L 284.518125 20.934101 
L 284.871614 20.214066 
L 285.107274 20.129936 
L 285.303658 20.303205 
L 285.578594 20.917932 
L 285.932084 22.344065 
L 286.403404 25.344222 
L 286.953277 30.386077 
L 287.660257 39.16888 
L 288.524343 53.048569 
L 289.62409 74.735756 
L 291.352262 114.039447 
L 293.433925 160.2606 
L 294.533672 179.964014 
L 295.397758 191.702145 
L 296.065461 198.080541 
L 296.615334 201.406824 
L 297.008101 202.669864 
L 297.283037 202.991252 
L 297.479421 202.935063 
L 297.715081 202.552838 
L 298.029294 201.5104 
L 298.42206 199.358986 
L 298.932657 195.183697 
L 299.561083 187.999301 
L 300.30734 176.77077 
L 301.24998 159.000726 
L 302.546109 129.818767 
L 306.198838 44.871007 
L 307.180754 28.248105 
L 307.966288 18.459832 
L 308.594714 13.182331 
L 309.066034 10.810991 
L 309.419524 9.951525 
L 309.655184 9.821095 
L 309.851567 9.983606 
L 310.126504 10.624649 
L 310.479993 12.152997 
L 310.912037 15.079532 
L 311.46191 20.433863 
L 312.129613 29.243718 
L 312.954423 43.252368 
L 314.014892 65.374172 
L 315.625235 104.303345 
L 317.942558 159.61691 
L 319.042304 180.665258 
L 319.906391 193.253718 
L 320.574094 200.163571 
L 321.123967 203.849523 
L 321.55601 205.42391 
L 321.830947 205.810247 
L 322.02733 205.791793 
L 322.223713 205.528196 
L 322.49865 204.749078 
L 322.891416 202.814901 
L 323.362736 199.247281 
L 323.951886 192.957469 
L 324.698143 182.296573 
L 325.601506 165.911734 
L 326.819082 139.326407 
L 330.943131 45.407598 
L 331.88577 30.558628 
L 332.632027 22.014873 
L 333.221177 17.492884 
L 333.692497 15.358782 
L 334.045986 14.641443 
L 334.281646 14.58612 
L 334.47803 14.798098 
L 334.752966 15.486898 
L 335.106456 17.03708 
L 335.577776 20.240521 
L 336.166926 25.99304 
L 336.873906 35.264952 
L 337.777269 50.371098 
L 338.955568 74.232478 
L 343.315277 166.678658 
L 344.21864 179.578152 
L 344.964896 187.273806 
L 345.554046 191.275453 
L 346.025366 193.10222 
L 346.339579 193.630898 
L 346.575239 193.664857 
L 346.810899 193.389273 
L 347.125113 192.544496 
L 347.517879 190.734112 
L 348.028476 187.166774 
L 348.656902 180.997854 
L 349.442435 170.797342 
L 350.424352 154.821153 
L 351.799034 128.401302 
L 354.823337 69.293623 
L 355.883807 53.23309 
L 356.708616 43.724273 
L 357.376319 38.228289 
L 357.926193 35.283249 
L 358.358236 33.999975 
L 358.672449 33.640712 
L 358.908109 33.687634 
L 359.143769 34.0037 
L 359.457982 34.838638 
L 359.890025 36.74128 
L 360.400622 40.072394 
L 361.068325 46.076936 
L 361.893135 55.773246 
L 362.953604 71.176941 
L 364.603224 98.915229 
L 366.76344 134.58293 
L 367.902463 149.792031 
L 368.766549 158.650526 
L 369.473529 163.885622 
L 370.062679 166.762521 
L 370.533999 168.063538 
L 370.848212 168.434187 
L 371.083872 168.452826 
L 371.319532 168.251339 
L 371.633745 167.64529 
L 372.026512 166.358452 
L 372.537108 163.842588 
L 373.165535 159.528117 
L 373.951068 152.46353 
L 374.972261 141.057669 
L 376.543327 120.577692 
L 378.86065 90.618032 
L 379.999673 78.768747 
L 380.863759 71.858322 
L 381.570739 67.751033 
L 382.159889 65.460408 
L 382.631209 64.384608 
L 382.984698 64.01856 
L 383.259635 63.991949 
L 383.534572 64.18731 
L 383.888062 64.7569 
L 384.320105 65.921833 
L 384.869978 68.106217 
L 385.576958 71.957502 
L 386.441044 78.001185 
L 387.65862 88.284279 
L 391.272073 119.949044 
L 392.253989 126.255904 
L 393.078799 130.228899 
L 393.746502 132.477062 
L 394.296375 133.660317 
L 394.767695 134.197145 
L 395.121185 134.31724 
L 395.474675 134.203127 
L 395.867441 133.813199 
L 396.338761 133.001468 
L 396.927911 131.506852 
L 397.674167 128.95775 
L 398.69536 124.57547 
L 400.69847 114.687764 
L 402.190983 107.896806 
L 403.212176 104.208821 
L 404.036986 101.989603 
L 404.743965 100.679109 
L 405.333115 100.009589 
L 405.843712 99.73074 
L 406.315032 99.707691 
L 406.825628 99.915814 
L 407.414778 100.421347 
L 408.161034 101.39251 
L 409.221504 103.187211 
L 411.420997 106.97776 
L 412.245806 107.933272 
L 412.363636 108.035207 
L 412.363636 108.035207 
" clip-path="url(#p5a4cd9b0f7)" style="fill: none; stroke: #f9ce61; stroke-width: 1.5; stroke-linecap: square"/>
   </g>
  </g>
 </g>
 <defs>
  <clipPath id="p5a4cd9b0f7">
   <rect x="0" y="0" width="432" height="216"/>
  </clipPath>
 </defs>
</svg>
